<mxfile host="app.diagrams.net" agent="Mozilla/5.0 (Windows NT 10.0; Win64; x64; rv:128.0) Gecko/20100101 Firefox/128.0" version="24.7.6">
  <diagram id="QgBFyqrRVEw8XDjFATjv" name="Page-1">
    <mxGraphModel dx="1434" dy="746" grid="0" gridSize="10" guides="1" tooltips="1" connect="1" arrows="1" fold="1" page="1" pageScale="1" pageWidth="1169" pageHeight="827" background="#000000" math="0" shadow="1">
      <root>
        <mxCell id="0" />
        <mxCell id="1" parent="0" />
        <mxCell id="xoSKbmUR9g-QrYVp5UOQ-6" value="" style="rounded=1;whiteSpace=wrap;html=1;shadow=1;arcSize=3;fillColor=none;glass=0;perimeterSpacing=0;labelBorderColor=none;shadowOffsetX=2;shadowOpacity=25;shadowColor=#66FF66;strokeColor=#E6E6E6;" parent="1" vertex="1">
          <mxGeometry x="40" y="119" width="1080" height="590" as="geometry" />
        </mxCell>
        <mxCell id="xoSKbmUR9g-QrYVp5UOQ-9" value="Text" style="text;html=1;strokeColor=none;fillColor=none;align=center;verticalAlign=middle;whiteSpace=wrap;rounded=0;shadow=1;sketch=0;shadowColor=#66FF66;textShadow=1;fontColor=#FFFFFF;" parent="1" vertex="1">
          <mxGeometry x="56" y="139" width="110" height="50" as="geometry" />
        </mxCell>
      </root>
    </mxGraphModel>
  </diagram>
</mxfile>
